<mxfile host="app.diagrams.net" agent="Mozilla/5.0 (Windows NT 10.0; Win64; x64; rv:136.0) Gecko/20100101 Firefox/136.0" version="26.1.0">
  <diagram name="Page-1" id="Aj724Gb-QDPjbq77q-CW">
    <mxGraphModel dx="1050" dy="528" grid="1" gridSize="10" guides="1" tooltips="1" connect="1" arrows="1" fold="1" page="1" pageScale="1" pageWidth="850" pageHeight="1100" math="0" shadow="0">
      <root>
        <mxCell id="0" />
        <mxCell id="1" parent="0" />
        <mxCell id="ryjhJUvMykbKHkbb6VnE-70" style="edgeStyle=orthogonalEdgeStyle;rounded=0;orthogonalLoop=1;jettySize=auto;html=1;exitX=1;exitY=0.75;exitDx=0;exitDy=0;" edge="1" parent="1" source="ryjhJUvMykbKHkbb6VnE-68" target="ryjhJUvMykbKHkbb6VnE-69">
          <mxGeometry relative="1" as="geometry" />
        </mxCell>
        <mxCell id="ryjhJUvMykbKHkbb6VnE-72" style="edgeStyle=orthogonalEdgeStyle;rounded=0;orthogonalLoop=1;jettySize=auto;html=1;exitX=0.75;exitY=1;exitDx=0;exitDy=0;entryX=0.25;entryY=0;entryDx=0;entryDy=0;" edge="1" parent="1" source="ryjhJUvMykbKHkbb6VnE-71">
          <mxGeometry relative="1" as="geometry">
            <mxPoint x="117.57857185616149" y="209.13357410100895" as="targetPoint" />
          </mxGeometry>
        </mxCell>
        <mxCell id="ryjhJUvMykbKHkbb6VnE-68" value="" style="image;aspect=fixed;perimeter=ellipsePerimeter;html=1;align=center;shadow=0;dashed=0;spacingTop=3;image=img/lib/active_directory/community_discussion.svg;" vertex="1" parent="1">
          <mxGeometry x="80" y="107.08" width="50" height="45" as="geometry" />
        </mxCell>
        <mxCell id="ryjhJUvMykbKHkbb6VnE-69" value="" style="image;aspect=fixed;perimeter=ellipsePerimeter;html=1;align=center;shadow=0;dashed=0;spacingTop=3;image=img/lib/active_directory/user.svg;" vertex="1" parent="1">
          <mxGeometry x="200" y="117.08" width="18.5" height="50" as="geometry" />
        </mxCell>
        <mxCell id="ryjhJUvMykbKHkbb6VnE-73" value="" style="image;aspect=fixed;perimeter=ellipsePerimeter;html=1;align=center;shadow=0;dashed=0;spacingTop=3;image=img/lib/active_directory/user.svg;" vertex="1" parent="1">
          <mxGeometry x="20" y="107.08" width="18.5" height="50" as="geometry" />
        </mxCell>
        <mxCell id="ryjhJUvMykbKHkbb6VnE-74" style="edgeStyle=orthogonalEdgeStyle;rounded=0;orthogonalLoop=1;jettySize=auto;html=1;exitX=0;exitY=1;exitDx=0;exitDy=0;entryX=0.541;entryY=0.692;entryDx=0;entryDy=0;entryPerimeter=0;" edge="1" parent="1" source="ryjhJUvMykbKHkbb6VnE-68" target="ryjhJUvMykbKHkbb6VnE-73">
          <mxGeometry relative="1" as="geometry" />
        </mxCell>
        <mxCell id="ryjhJUvMykbKHkbb6VnE-75" value="" style="image;aspect=fixed;perimeter=ellipsePerimeter;html=1;align=center;shadow=0;dashed=0;spacingTop=3;image=img/lib/active_directory/user.svg;" vertex="1" parent="1">
          <mxGeometry x="80" y="20" width="18.5" height="50" as="geometry" />
        </mxCell>
        <mxCell id="ryjhJUvMykbKHkbb6VnE-78" value="" style="edgeStyle=orthogonalEdgeStyle;rounded=0;orthogonalLoop=1;jettySize=auto;html=1;exitX=0.75;exitY=1;exitDx=0;exitDy=0;entryX=0.25;entryY=0;entryDx=0;entryDy=0;" edge="1" parent="1" source="ryjhJUvMykbKHkbb6VnE-68" target="ryjhJUvMykbKHkbb6VnE-71">
          <mxGeometry relative="1" as="geometry">
            <mxPoint x="116" y="150" as="sourcePoint" />
            <mxPoint x="117.57857185616149" y="209.13357410100895" as="targetPoint" />
          </mxGeometry>
        </mxCell>
        <mxCell id="ryjhJUvMykbKHkbb6VnE-71" value="" style="image;aspect=fixed;perimeter=ellipsePerimeter;html=1;align=center;shadow=0;dashed=0;spacingTop=3;image=img/lib/active_directory/user.svg;" vertex="1" parent="1">
          <mxGeometry x="102" y="200" width="18.5" height="50" as="geometry" />
        </mxCell>
        <mxCell id="ryjhJUvMykbKHkbb6VnE-82" style="edgeStyle=orthogonalEdgeStyle;rounded=0;orthogonalLoop=1;jettySize=auto;html=1;exitX=0;exitY=0.75;exitDx=0;exitDy=0;entryX=1;entryY=0.25;entryDx=0;entryDy=0;" edge="1" parent="1" source="ryjhJUvMykbKHkbb6VnE-79" target="ryjhJUvMykbKHkbb6VnE-68">
          <mxGeometry relative="1" as="geometry" />
        </mxCell>
        <mxCell id="ryjhJUvMykbKHkbb6VnE-79" value="" style="image;aspect=fixed;perimeter=ellipsePerimeter;html=1;align=center;shadow=0;dashed=0;spacingTop=3;image=img/lib/active_directory/meeting.svg;" vertex="1" parent="1">
          <mxGeometry x="184.25" y="20" width="50" height="45.5" as="geometry" />
        </mxCell>
        <mxCell id="ryjhJUvMykbKHkbb6VnE-81" style="edgeStyle=orthogonalEdgeStyle;rounded=0;orthogonalLoop=1;jettySize=auto;html=1;exitX=0.25;exitY=0;exitDx=0;exitDy=0;entryX=0.541;entryY=0.668;entryDx=0;entryDy=0;entryPerimeter=0;" edge="1" parent="1" source="ryjhJUvMykbKHkbb6VnE-68" target="ryjhJUvMykbKHkbb6VnE-75">
          <mxGeometry relative="1" as="geometry" />
        </mxCell>
        <mxCell id="ryjhJUvMykbKHkbb6VnE-83" value="&lt;div&gt;WHEEL COMMUNICATION NETWORK&lt;/div&gt;&lt;div&gt;&lt;br&gt;&lt;/div&gt;" style="text;html=1;align=center;verticalAlign=middle;whiteSpace=wrap;rounded=0;" vertex="1" parent="1">
          <mxGeometry x="150" y="77.08000000000001" width="60" height="30" as="geometry" />
        </mxCell>
        <mxCell id="ryjhJUvMykbKHkbb6VnE-87" style="edgeStyle=orthogonalEdgeStyle;rounded=0;orthogonalLoop=1;jettySize=auto;html=1;exitX=0;exitY=0.5;exitDx=0;exitDy=0;entryX=1;entryY=0.25;entryDx=0;entryDy=0;" edge="1" parent="1" source="ryjhJUvMykbKHkbb6VnE-84" target="ryjhJUvMykbKHkbb6VnE-86">
          <mxGeometry relative="1" as="geometry" />
        </mxCell>
        <mxCell id="ryjhJUvMykbKHkbb6VnE-84" value="" style="image;aspect=fixed;perimeter=ellipsePerimeter;html=1;align=center;shadow=0;dashed=0;spacingTop=3;image=img/lib/active_directory/meeting.svg;" vertex="1" parent="1">
          <mxGeometry x="450" y="17.08" width="50" height="45.5" as="geometry" />
        </mxCell>
        <mxCell id="ryjhJUvMykbKHkbb6VnE-89" style="edgeStyle=orthogonalEdgeStyle;rounded=0;orthogonalLoop=1;jettySize=auto;html=1;exitX=0.75;exitY=1;exitDx=0;exitDy=0;entryX=0.75;entryY=0;entryDx=0;entryDy=0;" edge="1" parent="1" source="ryjhJUvMykbKHkbb6VnE-86">
          <mxGeometry relative="1" as="geometry">
            <mxPoint x="380.01682976598545" y="129.38247876236036" as="targetPoint" />
          </mxGeometry>
        </mxCell>
        <mxCell id="ryjhJUvMykbKHkbb6VnE-86" value="" style="image;aspect=fixed;perimeter=ellipsePerimeter;html=1;align=center;shadow=0;dashed=0;spacingTop=3;image=img/lib/active_directory/user.svg;" vertex="1" parent="1">
          <mxGeometry x="360" y="24.08" width="18.5" height="50" as="geometry" />
        </mxCell>
        <mxCell id="ryjhJUvMykbKHkbb6VnE-91" style="edgeStyle=orthogonalEdgeStyle;rounded=0;orthogonalLoop=1;jettySize=auto;html=1;exitX=1;exitY=0.5;exitDx=0;exitDy=0;entryX=0;entryY=0.5;entryDx=0;entryDy=0;" edge="1" parent="1" target="ryjhJUvMykbKHkbb6VnE-90">
          <mxGeometry relative="1" as="geometry">
            <mxPoint x="394" y="149.58" as="sourcePoint" />
          </mxGeometry>
        </mxCell>
        <mxCell id="ryjhJUvMykbKHkbb6VnE-88" value="" style="image;aspect=fixed;perimeter=ellipsePerimeter;html=1;align=center;shadow=0;dashed=0;spacingTop=3;image=img/lib/active_directory/community_discussion.svg;" vertex="1" parent="1">
          <mxGeometry x="344.25" y="117.08" width="50" height="45" as="geometry" />
        </mxCell>
        <mxCell id="ryjhJUvMykbKHkbb6VnE-93" style="edgeStyle=orthogonalEdgeStyle;rounded=0;orthogonalLoop=1;jettySize=auto;html=1;exitX=0.5;exitY=1;exitDx=0;exitDy=0;" edge="1" parent="1" source="ryjhJUvMykbKHkbb6VnE-90" target="ryjhJUvMykbKHkbb6VnE-92">
          <mxGeometry relative="1" as="geometry" />
        </mxCell>
        <mxCell id="ryjhJUvMykbKHkbb6VnE-90" value="" style="image;aspect=fixed;perimeter=ellipsePerimeter;html=1;align=center;shadow=0;dashed=0;spacingTop=3;image=img/lib/active_directory/users.svg;" vertex="1" parent="1">
          <mxGeometry x="480" y="127.08" width="33" height="50" as="geometry" />
        </mxCell>
        <mxCell id="ryjhJUvMykbKHkbb6VnE-92" value="" style="image;aspect=fixed;perimeter=ellipsePerimeter;html=1;align=center;shadow=0;dashed=0;spacingTop=3;image=img/lib/active_directory/users.svg;" vertex="1" parent="1">
          <mxGeometry x="480" y="217.08" width="33" height="50" as="geometry" />
        </mxCell>
        <mxCell id="ryjhJUvMykbKHkbb6VnE-94" value="&lt;div&gt;CHAIN COMMUNICATION NETWORK&lt;/div&gt;&lt;div&gt;&lt;br&gt;&lt;/div&gt;" style="text;html=1;align=center;verticalAlign=middle;whiteSpace=wrap;rounded=0;" vertex="1" parent="1">
          <mxGeometry x="425" y="87.08" width="60" height="30" as="geometry" />
        </mxCell>
        <mxCell id="ryjhJUvMykbKHkbb6VnE-104" style="edgeStyle=orthogonalEdgeStyle;rounded=0;orthogonalLoop=1;jettySize=auto;html=1;exitX=0;exitY=0.5;exitDx=0;exitDy=0;entryX=0.5;entryY=0;entryDx=0;entryDy=0;" edge="1" parent="1" source="ryjhJUvMykbKHkbb6VnE-95" target="ryjhJUvMykbKHkbb6VnE-100">
          <mxGeometry relative="1" as="geometry" />
        </mxCell>
        <mxCell id="ryjhJUvMykbKHkbb6VnE-105" style="edgeStyle=orthogonalEdgeStyle;rounded=0;orthogonalLoop=1;jettySize=auto;html=1;exitX=1;exitY=0.5;exitDx=0;exitDy=0;entryX=0.75;entryY=0;entryDx=0;entryDy=0;" edge="1" parent="1" source="ryjhJUvMykbKHkbb6VnE-95" target="ryjhJUvMykbKHkbb6VnE-102">
          <mxGeometry relative="1" as="geometry" />
        </mxCell>
        <mxCell id="ryjhJUvMykbKHkbb6VnE-95" value="" style="image;aspect=fixed;perimeter=ellipsePerimeter;html=1;align=center;shadow=0;dashed=0;spacingTop=3;image=img/lib/active_directory/meeting.svg;" vertex="1" parent="1">
          <mxGeometry x="128" y="300" width="50" height="45.5" as="geometry" />
        </mxCell>
        <mxCell id="ryjhJUvMykbKHkbb6VnE-109" style="edgeStyle=orthogonalEdgeStyle;rounded=0;orthogonalLoop=1;jettySize=auto;html=1;exitX=0;exitY=0.75;exitDx=0;exitDy=0;entryX=0.75;entryY=0;entryDx=0;entryDy=0;" edge="1" parent="1" source="ryjhJUvMykbKHkbb6VnE-100" target="ryjhJUvMykbKHkbb6VnE-106">
          <mxGeometry relative="1" as="geometry" />
        </mxCell>
        <mxCell id="ryjhJUvMykbKHkbb6VnE-100" value="" style="image;aspect=fixed;perimeter=ellipsePerimeter;html=1;align=center;shadow=0;dashed=0;spacingTop=3;image=img/lib/active_directory/community_discussion.svg;" vertex="1" parent="1">
          <mxGeometry x="48" y="345.5" width="50" height="45" as="geometry" />
        </mxCell>
        <mxCell id="ryjhJUvMykbKHkbb6VnE-108" style="edgeStyle=orthogonalEdgeStyle;rounded=0;orthogonalLoop=1;jettySize=auto;html=1;exitX=1;exitY=1;exitDx=0;exitDy=0;entryX=0.5;entryY=0;entryDx=0;entryDy=0;" edge="1" parent="1" source="ryjhJUvMykbKHkbb6VnE-102" target="ryjhJUvMykbKHkbb6VnE-107">
          <mxGeometry relative="1" as="geometry" />
        </mxCell>
        <mxCell id="ryjhJUvMykbKHkbb6VnE-102" value="" style="image;aspect=fixed;perimeter=ellipsePerimeter;html=1;align=center;shadow=0;dashed=0;spacingTop=3;image=img/lib/active_directory/community_discussion.svg;" vertex="1" parent="1">
          <mxGeometry x="198" y="350" width="50" height="45" as="geometry" />
        </mxCell>
        <mxCell id="ryjhJUvMykbKHkbb6VnE-113" style="edgeStyle=orthogonalEdgeStyle;rounded=0;orthogonalLoop=1;jettySize=auto;html=1;exitX=0.5;exitY=1;exitDx=0;exitDy=0;entryX=0;entryY=0.5;entryDx=0;entryDy=0;" edge="1" parent="1" source="ryjhJUvMykbKHkbb6VnE-106" target="ryjhJUvMykbKHkbb6VnE-110">
          <mxGeometry relative="1" as="geometry" />
        </mxCell>
        <mxCell id="ryjhJUvMykbKHkbb6VnE-106" value="" style="image;aspect=fixed;perimeter=ellipsePerimeter;html=1;align=center;shadow=0;dashed=0;spacingTop=3;image=img/lib/active_directory/user.svg;" vertex="1" parent="1">
          <mxGeometry x="20" y="410" width="18.5" height="50" as="geometry" />
        </mxCell>
        <mxCell id="ryjhJUvMykbKHkbb6VnE-112" style="edgeStyle=orthogonalEdgeStyle;rounded=0;orthogonalLoop=1;jettySize=auto;html=1;exitX=0.5;exitY=1;exitDx=0;exitDy=0;entryX=1;entryY=0.5;entryDx=0;entryDy=0;" edge="1" parent="1" source="ryjhJUvMykbKHkbb6VnE-107" target="ryjhJUvMykbKHkbb6VnE-111">
          <mxGeometry relative="1" as="geometry" />
        </mxCell>
        <mxCell id="ryjhJUvMykbKHkbb6VnE-107" value="" style="image;aspect=fixed;perimeter=ellipsePerimeter;html=1;align=center;shadow=0;dashed=0;spacingTop=3;image=img/lib/active_directory/user.svg;" vertex="1" parent="1">
          <mxGeometry x="278" y="420" width="18.5" height="50" as="geometry" />
        </mxCell>
        <mxCell id="ryjhJUvMykbKHkbb6VnE-116" style="edgeStyle=orthogonalEdgeStyle;rounded=0;orthogonalLoop=1;jettySize=auto;html=1;exitX=0.5;exitY=1;exitDx=0;exitDy=0;entryX=0;entryY=0.5;entryDx=0;entryDy=0;" edge="1" parent="1" source="ryjhJUvMykbKHkbb6VnE-110" target="ryjhJUvMykbKHkbb6VnE-115">
          <mxGeometry relative="1" as="geometry" />
        </mxCell>
        <mxCell id="ryjhJUvMykbKHkbb6VnE-110" value="" style="image;aspect=fixed;perimeter=ellipsePerimeter;html=1;align=center;shadow=0;dashed=0;spacingTop=3;image=img/lib/active_directory/users.svg;" vertex="1" parent="1">
          <mxGeometry x="74" y="490" width="33" height="50" as="geometry" />
        </mxCell>
        <mxCell id="ryjhJUvMykbKHkbb6VnE-117" style="edgeStyle=orthogonalEdgeStyle;rounded=0;orthogonalLoop=1;jettySize=auto;html=1;exitX=0.75;exitY=1;exitDx=0;exitDy=0;entryX=1;entryY=0.5;entryDx=0;entryDy=0;" edge="1" parent="1" source="ryjhJUvMykbKHkbb6VnE-111" target="ryjhJUvMykbKHkbb6VnE-115">
          <mxGeometry relative="1" as="geometry" />
        </mxCell>
        <mxCell id="ryjhJUvMykbKHkbb6VnE-111" value="" style="image;aspect=fixed;perimeter=ellipsePerimeter;html=1;align=center;shadow=0;dashed=0;spacingTop=3;image=img/lib/active_directory/users.svg;" vertex="1" parent="1">
          <mxGeometry x="215" y="500" width="33" height="50" as="geometry" />
        </mxCell>
        <mxCell id="ryjhJUvMykbKHkbb6VnE-115" value="" style="image;aspect=fixed;perimeter=ellipsePerimeter;html=1;align=center;shadow=0;dashed=0;spacingTop=3;image=img/lib/active_directory/user_accounts.svg;" vertex="1" parent="1">
          <mxGeometry x="138" y="550" width="50" height="48.5" as="geometry" />
        </mxCell>
        <mxCell id="ryjhJUvMykbKHkbb6VnE-118" value="&lt;div&gt;CIRCLE COMMUNICATION NETWORK&lt;/div&gt;&lt;div&gt;&lt;br&gt;&lt;/div&gt;" style="text;html=1;align=center;verticalAlign=middle;whiteSpace=wrap;rounded=0;" vertex="1" parent="1">
          <mxGeometry x="118" y="420" width="60" height="30" as="geometry" />
        </mxCell>
        <mxCell id="ryjhJUvMykbKHkbb6VnE-124" style="edgeStyle=orthogonalEdgeStyle;rounded=0;orthogonalLoop=1;jettySize=auto;html=1;exitX=0;exitY=0.75;exitDx=0;exitDy=0;entryX=1;entryY=0;entryDx=0;entryDy=0;" edge="1" parent="1" source="ryjhJUvMykbKHkbb6VnE-119" target="ryjhJUvMykbKHkbb6VnE-120">
          <mxGeometry relative="1" as="geometry" />
        </mxCell>
        <mxCell id="ryjhJUvMykbKHkbb6VnE-133" style="edgeStyle=orthogonalEdgeStyle;rounded=0;orthogonalLoop=1;jettySize=auto;html=1;exitX=1;exitY=1;exitDx=0;exitDy=0;entryX=0.25;entryY=0;entryDx=0;entryDy=0;" edge="1" parent="1" source="ryjhJUvMykbKHkbb6VnE-119" target="ryjhJUvMykbKHkbb6VnE-121">
          <mxGeometry relative="1" as="geometry" />
        </mxCell>
        <mxCell id="ryjhJUvMykbKHkbb6VnE-134" style="edgeStyle=orthogonalEdgeStyle;rounded=0;orthogonalLoop=1;jettySize=auto;html=1;exitX=0.5;exitY=1;exitDx=0;exitDy=0;entryX=1;entryY=0.25;entryDx=0;entryDy=0;" edge="1" parent="1" source="ryjhJUvMykbKHkbb6VnE-119" target="ryjhJUvMykbKHkbb6VnE-122">
          <mxGeometry relative="1" as="geometry" />
        </mxCell>
        <mxCell id="ryjhJUvMykbKHkbb6VnE-136" style="edgeStyle=orthogonalEdgeStyle;rounded=0;orthogonalLoop=1;jettySize=auto;html=1;exitX=0.75;exitY=1;exitDx=0;exitDy=0;entryX=0;entryY=0.5;entryDx=0;entryDy=0;" edge="1" parent="1" source="ryjhJUvMykbKHkbb6VnE-119" target="ryjhJUvMykbKHkbb6VnE-123">
          <mxGeometry relative="1" as="geometry" />
        </mxCell>
        <mxCell id="ryjhJUvMykbKHkbb6VnE-138" style="edgeStyle=orthogonalEdgeStyle;rounded=0;orthogonalLoop=1;jettySize=auto;html=1;exitX=1;exitY=0;exitDx=0;exitDy=0;entryX=1;entryY=0;entryDx=0;entryDy=0;" edge="1" parent="1" source="ryjhJUvMykbKHkbb6VnE-119" target="ryjhJUvMykbKHkbb6VnE-121">
          <mxGeometry relative="1" as="geometry" />
        </mxCell>
        <mxCell id="ryjhJUvMykbKHkbb6VnE-119" value="" style="image;aspect=fixed;perimeter=ellipsePerimeter;html=1;align=center;shadow=0;dashed=0;spacingTop=3;image=img/lib/active_directory/meeting.svg;" vertex="1" parent="1">
          <mxGeometry x="600" y="320" width="50" height="45.5" as="geometry" />
        </mxCell>
        <mxCell id="ryjhJUvMykbKHkbb6VnE-125" style="edgeStyle=orthogonalEdgeStyle;rounded=0;orthogonalLoop=1;jettySize=auto;html=1;exitX=1;exitY=0.5;exitDx=0;exitDy=0;entryX=0.25;entryY=1;entryDx=0;entryDy=0;" edge="1" parent="1" source="ryjhJUvMykbKHkbb6VnE-120" target="ryjhJUvMykbKHkbb6VnE-119">
          <mxGeometry relative="1" as="geometry" />
        </mxCell>
        <mxCell id="ryjhJUvMykbKHkbb6VnE-126" style="edgeStyle=orthogonalEdgeStyle;rounded=0;orthogonalLoop=1;jettySize=auto;html=1;exitX=0.75;exitY=1;exitDx=0;exitDy=0;" edge="1" parent="1" source="ryjhJUvMykbKHkbb6VnE-120" target="ryjhJUvMykbKHkbb6VnE-122">
          <mxGeometry relative="1" as="geometry" />
        </mxCell>
        <mxCell id="ryjhJUvMykbKHkbb6VnE-120" value="" style="image;aspect=fixed;perimeter=ellipsePerimeter;html=1;align=center;shadow=0;dashed=0;spacingTop=3;image=img/lib/active_directory/community_discussion.svg;" vertex="1" parent="1">
          <mxGeometry x="485" y="400" width="50" height="45" as="geometry" />
        </mxCell>
        <mxCell id="ryjhJUvMykbKHkbb6VnE-131" style="edgeStyle=orthogonalEdgeStyle;rounded=0;orthogonalLoop=1;jettySize=auto;html=1;exitX=0.5;exitY=1;exitDx=0;exitDy=0;entryX=1;entryY=0.25;entryDx=0;entryDy=0;" edge="1" parent="1" source="ryjhJUvMykbKHkbb6VnE-121" target="ryjhJUvMykbKHkbb6VnE-123">
          <mxGeometry relative="1" as="geometry" />
        </mxCell>
        <mxCell id="ryjhJUvMykbKHkbb6VnE-132" style="edgeStyle=orthogonalEdgeStyle;rounded=0;orthogonalLoop=1;jettySize=auto;html=1;exitX=0.5;exitY=0;exitDx=0;exitDy=0;entryX=1;entryY=0.5;entryDx=0;entryDy=0;" edge="1" parent="1" source="ryjhJUvMykbKHkbb6VnE-121" target="ryjhJUvMykbKHkbb6VnE-119">
          <mxGeometry relative="1" as="geometry" />
        </mxCell>
        <mxCell id="ryjhJUvMykbKHkbb6VnE-139" style="edgeStyle=orthogonalEdgeStyle;rounded=0;orthogonalLoop=1;jettySize=auto;html=1;exitX=1;exitY=0.25;exitDx=0;exitDy=0;entryX=1;entryY=1;entryDx=0;entryDy=0;" edge="1" parent="1" source="ryjhJUvMykbKHkbb6VnE-121" target="ryjhJUvMykbKHkbb6VnE-119">
          <mxGeometry relative="1" as="geometry" />
        </mxCell>
        <mxCell id="ryjhJUvMykbKHkbb6VnE-141" style="edgeStyle=orthogonalEdgeStyle;rounded=0;orthogonalLoop=1;jettySize=auto;html=1;exitX=0;exitY=1;exitDx=0;exitDy=0;entryX=1;entryY=0.75;entryDx=0;entryDy=0;" edge="1" parent="1" source="ryjhJUvMykbKHkbb6VnE-121" target="ryjhJUvMykbKHkbb6VnE-120">
          <mxGeometry relative="1" as="geometry" />
        </mxCell>
        <mxCell id="ryjhJUvMykbKHkbb6VnE-121" value="" style="image;aspect=fixed;perimeter=ellipsePerimeter;html=1;align=center;shadow=0;dashed=0;spacingTop=3;image=img/lib/active_directory/users.svg;" vertex="1" parent="1">
          <mxGeometry x="720" y="395" width="33" height="50" as="geometry" />
        </mxCell>
        <mxCell id="ryjhJUvMykbKHkbb6VnE-128" style="edgeStyle=orthogonalEdgeStyle;rounded=0;orthogonalLoop=1;jettySize=auto;html=1;exitX=0.5;exitY=1;exitDx=0;exitDy=0;entryX=0.5;entryY=1;entryDx=0;entryDy=0;" edge="1" parent="1" source="ryjhJUvMykbKHkbb6VnE-122" target="ryjhJUvMykbKHkbb6VnE-123">
          <mxGeometry relative="1" as="geometry" />
        </mxCell>
        <mxCell id="ryjhJUvMykbKHkbb6VnE-135" style="edgeStyle=orthogonalEdgeStyle;rounded=0;orthogonalLoop=1;jettySize=auto;html=1;exitX=0;exitY=0.25;exitDx=0;exitDy=0;entryX=0;entryY=0.5;entryDx=0;entryDy=0;" edge="1" parent="1" source="ryjhJUvMykbKHkbb6VnE-122" target="ryjhJUvMykbKHkbb6VnE-119">
          <mxGeometry relative="1" as="geometry" />
        </mxCell>
        <mxCell id="ryjhJUvMykbKHkbb6VnE-122" value="" style="image;aspect=fixed;perimeter=ellipsePerimeter;html=1;align=center;shadow=0;dashed=0;spacingTop=3;image=img/lib/active_directory/user.svg;" vertex="1" parent="1">
          <mxGeometry x="570" y="502" width="18.5" height="50" as="geometry" />
        </mxCell>
        <mxCell id="ryjhJUvMykbKHkbb6VnE-129" style="edgeStyle=orthogonalEdgeStyle;rounded=0;orthogonalLoop=1;jettySize=auto;html=1;exitX=0.5;exitY=0;exitDx=0;exitDy=0;entryX=1;entryY=0.75;entryDx=0;entryDy=0;" edge="1" parent="1" source="ryjhJUvMykbKHkbb6VnE-123" target="ryjhJUvMykbKHkbb6VnE-122">
          <mxGeometry relative="1" as="geometry" />
        </mxCell>
        <mxCell id="ryjhJUvMykbKHkbb6VnE-130" style="edgeStyle=orthogonalEdgeStyle;rounded=0;orthogonalLoop=1;jettySize=auto;html=1;exitX=1;exitY=0.5;exitDx=0;exitDy=0;entryX=1;entryY=0.5;entryDx=0;entryDy=0;" edge="1" parent="1" source="ryjhJUvMykbKHkbb6VnE-123" target="ryjhJUvMykbKHkbb6VnE-121">
          <mxGeometry relative="1" as="geometry" />
        </mxCell>
        <mxCell id="ryjhJUvMykbKHkbb6VnE-137" style="edgeStyle=orthogonalEdgeStyle;rounded=0;orthogonalLoop=1;jettySize=auto;html=1;exitX=0;exitY=0;exitDx=0;exitDy=0;" edge="1" parent="1" source="ryjhJUvMykbKHkbb6VnE-123">
          <mxGeometry relative="1" as="geometry">
            <mxPoint x="640" y="360" as="targetPoint" />
          </mxGeometry>
        </mxCell>
        <mxCell id="ryjhJUvMykbKHkbb6VnE-123" value="" style="image;aspect=fixed;perimeter=ellipsePerimeter;html=1;align=center;shadow=0;dashed=0;spacingTop=3;image=img/lib/active_directory/user_accounts.svg;" vertex="1" parent="1">
          <mxGeometry x="690" y="502" width="50" height="48.5" as="geometry" />
        </mxCell>
        <mxCell id="ryjhJUvMykbKHkbb6VnE-127" style="edgeStyle=orthogonalEdgeStyle;rounded=0;orthogonalLoop=1;jettySize=auto;html=1;exitX=0;exitY=0.5;exitDx=0;exitDy=0;entryX=0.148;entryY=0.564;entryDx=0;entryDy=0;entryPerimeter=0;" edge="1" parent="1" source="ryjhJUvMykbKHkbb6VnE-122" target="ryjhJUvMykbKHkbb6VnE-120">
          <mxGeometry relative="1" as="geometry" />
        </mxCell>
        <mxCell id="ryjhJUvMykbKHkbb6VnE-140" style="edgeStyle=orthogonalEdgeStyle;rounded=0;orthogonalLoop=1;jettySize=auto;html=1;exitX=1;exitY=0.5;exitDx=0;exitDy=0;entryX=0.23;entryY=0.544;entryDx=0;entryDy=0;entryPerimeter=0;" edge="1" parent="1" source="ryjhJUvMykbKHkbb6VnE-120" target="ryjhJUvMykbKHkbb6VnE-121">
          <mxGeometry relative="1" as="geometry" />
        </mxCell>
        <mxCell id="ryjhJUvMykbKHkbb6VnE-144" value="&lt;div&gt;STAR COMMUNICATION NETWORK&lt;/div&gt;&lt;div&gt;&lt;br&gt;&lt;/div&gt;" style="text;html=1;align=center;verticalAlign=middle;whiteSpace=wrap;rounded=0;" vertex="1" parent="1">
          <mxGeometry x="485" y="540" width="60" height="30" as="geometry" />
        </mxCell>
      </root>
    </mxGraphModel>
  </diagram>
</mxfile>
